<?xml version="1.0" standalone="no"?>
<!DOCTYPE svg PUBLIC "-//W3C//DTD SVG 20010904//EN"
 "http://www.w3.org/TR/2001/REC-SVG-20010904/DTD/svg10.dtd">
<svg version="1.0" xmlns="http://www.w3.org/2000/svg"
 width="1232.000000pt" height="1232.000000pt" viewBox="0 0 1232.000000 1232.000000"
 preserveAspectRatio="xMidYMid meet">
<metadata>
Created by potrace 1.11, written by Peter Selinger 2001-2013
</metadata>
<g transform="translate(0.000000,1232.000000) scale(0.100000,-0.100000)"
fill="#000000" stroke="none">
<path d="M0 6160 l0 -6120 6160 0 6160 0 0 6120 0 6120 -6160 0 -6160 0 0
-6120z m11520 -55 l0 -5365 -5360 0 -5360 0 0 5365 0 5365 5360 0 5360 0 0
-5365z"/>
<path d="M4680 9590 l0 -400 340 0 340 0 0 -3080 0 -3080 -340 0 -340 0 0
-400 0 -400 1540 0 1540 0 0 400 0 400 -400 0 -400 0 0 3080 0 3080 400 0 400
0 0 400 0 400 -1540 0 -1540 0 0 -400z"/>
</g>
</svg>
